<svg xmlns="http://www.w3.org/2000/svg" width="20" height="15" fill="none" viewBox="0 0 20 15"><path fill="#3d58db" fill-rule="evenodd" d="M0 0v15h20V0z" clip-rule="evenodd"/><path fill="#ffd018" fill-rule="evenodd" d="m9.407 2.442-.14.818.733-.385.735.386-.14-.818.594-.64h-.821L10 1l-.367.804h-.822zm0 10.855-.14.819.734-.387.735.387-.14-.819.594-.639h-.821L10 11.855l-.367.804h-.822l.595.64zM3.484 8.743l.14-.818-.594-.64h.822l.367-.803.367.804h.822l-.595.639.14.818-.734-.386zm1.352 1.77-.14.818.734-.386.735.386-.14-.818.594-.64h-.821L5.43 9.07l-.367.804H4.24zm9.009.818.14-.818-.595-.64h.822l.367-.803.368.804h.821l-.594.639.14.818-.735-.386zm-9.01-6.062-.14.818.735-.386.735.386-.14-.818.594-.639h-.821l-.368-.804-.367.804H4.24zm9.01.818.14-.818-.595-.639h.822l.367-.804.368.804h.821l-.594.64.14.817-.735-.386zM6.66 12.595l-.14.819.735-.387.734.386-.14-.818.595-.639h-.822l-.367-.804-.368.804h-.821zm5.418.819.14-.819-.594-.639h.821l.367-.804.368.804h.821l-.594.64.14.817-.735-.386zM6.52 3.971l.735-.387.734.387-.14-.818.595-.64h-.822l-.367-.804-.368.804h-.821l.594.64zm5.558 0 .14-.818-.594-.64h.821l.367-.804.368.804h.821l-.594.64.14.818-.735-.387zM15.14 7.85l-.14.818.735-.386.735.386-.14-.818.593-.64h-.82l-.368-.803-.368.804h-.821z" clip-rule="evenodd"/></svg> 